<svg xmlns="http://www.w3.org/2000/svg" viewBox="0 0 400 400">
    <defs>
        <filter id="glow-41daea34affe5bd3" x="-30%" y="-30%" width="160%" height="160%">
            <feGaussianBlur stdDeviation="8.2"></feGaussianBlur>
        </filter>
    </defs>
    <g filter="url(#glow-41daea34affe5bd3)" fill="#f62837">
        <path d="M283.93 196.48 L392.00 200.00 L283.93 203.52 Z M283.00 212.92 L388.31 237.46 L281.63 219.82 Z M278.88 228.87 L377.38 273.48 L276.19 235.37 Z M271.74 243.70 L359.64 306.67 L267.83 249.55 Z M261.83 256.86 L335.76 335.76 L256.86 261.83 Z M249.55 267.83 L306.67 359.64 L243.70 271.74 Z M235.37 276.19 L273.48 377.38 L228.87 278.88 Z M219.82 281.63 L237.46 388.31 L212.92 283.00 Z M203.52 283.93 L200.00 392.00 L196.48 283.93 Z M187.08 283.00 L162.54 388.31 L180.18 281.63 Z M171.13 278.88 L126.52 377.38 L164.63 276.19 Z M156.30 271.74 L93.33 359.64 L150.45 267.83 Z M143.14 261.83 L64.24 335.76 L138.17 256.86 Z M132.17 249.55 L40.36 306.67 L128.26 243.70 Z M123.81 235.37 L22.62 273.48 L121.12 228.87 Z M118.37 219.82 L11.69 237.46 L117.00 212.92 Z M116.07 203.52 L8.00 200.00 L116.07 196.48 Z M117.00 187.08 L11.69 162.54 L118.37 180.18 Z M121.12 171.13 L22.62 126.52 L123.81 164.63 Z M128.26 156.30 L40.36 93.33 L132.17 150.45 Z M138.17 143.14 L64.24 64.24 L143.14 138.17 Z M150.45 132.17 L93.33 40.36 L156.30 128.26 Z M164.63 123.81 L126.52 22.62 L171.13 121.12 Z M180.18 118.37 L162.54 11.69 L187.08 117.00 Z M196.48 116.07 L200.00 8.00 L203.52 116.07 Z M212.92 117.00 L237.46 11.69 L219.82 118.37 Z M228.87 121.12 L273.48 22.62 L235.37 123.81 Z M243.70 128.26 L306.67 40.36 L249.55 132.17 Z M256.86 138.17 L335.76 64.24 L261.83 143.14 Z M267.83 150.45 L359.64 93.33 L271.74 156.30 Z M276.19 164.63 L377.38 126.52 L278.88 171.13 Z M281.63 180.18 L388.31 162.54 L283.00 187.08 Z"></path>
        <circle cx="200" cy="200" r="96"></circle>
    </g>
</svg>